<mxfile host="app.diagrams.net" modified="2020-11-06T09:03:14.041Z" agent="5.0 (Macintosh; Intel Mac OS X 10_14_6) AppleWebKit/537.36 (KHTML, like Gecko) Chrome/86.0.4240.183 Safari/537.36" etag="Qt__5Yr9wNvcv6PgLudc" version="13.9.2" type="github">
  <diagram id="6DFWa2JBaGOPVvsjgBqe" name="Page-1">
    <mxGraphModel dx="1666" dy="699" grid="1" gridSize="10" guides="1" tooltips="1" connect="1" arrows="1" fold="1" page="1" pageScale="1" pageWidth="827" pageHeight="1169" math="0" shadow="0">
      <root>
        <mxCell id="0" />
        <mxCell id="1" parent="0" />
        <mxCell id="lQh_TWK7ohB6_JGlpq7s-2" value="" style="rounded=0;whiteSpace=wrap;html=1;" vertex="1" parent="1">
          <mxGeometry x="160" y="240" width="190" height="250" as="geometry" />
        </mxCell>
        <mxCell id="lQh_TWK7ohB6_JGlpq7s-3" value="" style="rounded=0;whiteSpace=wrap;html=1;" vertex="1" parent="1">
          <mxGeometry x="480" y="240" width="190" height="250" as="geometry" />
        </mxCell>
        <mxCell id="lQh_TWK7ohB6_JGlpq7s-5" value="中心机房" style="text;html=1;strokeColor=none;fillColor=none;align=center;verticalAlign=middle;whiteSpace=wrap;rounded=0;" vertex="1" parent="1">
          <mxGeometry x="220" y="250" width="60" height="20" as="geometry" />
        </mxCell>
        <mxCell id="lQh_TWK7ohB6_JGlpq7s-6" value="单元机房" style="text;html=1;strokeColor=none;fillColor=none;align=center;verticalAlign=middle;whiteSpace=wrap;rounded=0;" vertex="1" parent="1">
          <mxGeometry x="545" y="250" width="60" height="20" as="geometry" />
        </mxCell>
        <mxCell id="lQh_TWK7ohB6_JGlpq7s-7" value="AppA" style="ellipse;whiteSpace=wrap;html=1;fillColor=#FFCCFF;" vertex="1" parent="1">
          <mxGeometry x="212.5" y="300" width="75" height="50" as="geometry" />
        </mxCell>
        <mxCell id="lQh_TWK7ohB6_JGlpq7s-8" value="AppB" style="ellipse;whiteSpace=wrap;html=1;fillColor=#9999FF;" vertex="1" parent="1">
          <mxGeometry x="212.5" y="410" width="75" height="50" as="geometry" />
        </mxCell>
        <mxCell id="lQh_TWK7ohB6_JGlpq7s-9" value="AppA" style="ellipse;whiteSpace=wrap;html=1;fillColor=#FFCCFF;" vertex="1" parent="1">
          <mxGeometry x="537.5" y="300" width="75" height="50" as="geometry" />
        </mxCell>
        <mxCell id="lQh_TWK7ohB6_JGlpq7s-10" value="" style="endArrow=classic;html=1;" edge="1" parent="1" source="lQh_TWK7ohB6_JGlpq7s-9">
          <mxGeometry width="50" height="50" relative="1" as="geometry">
            <mxPoint x="370" y="330" as="sourcePoint" />
            <mxPoint x="290" y="430" as="targetPoint" />
          </mxGeometry>
        </mxCell>
        <mxCell id="lQh_TWK7ohB6_JGlpq7s-11" value="RPC跨机房调用" style="text;html=1;align=center;verticalAlign=middle;resizable=0;points=[];autosize=1;" vertex="1" parent="1">
          <mxGeometry x="360" y="355" width="100" height="20" as="geometry" />
        </mxCell>
        <mxCell id="lQh_TWK7ohB6_JGlpq7s-12" value="AppB" style="ellipse;whiteSpace=wrap;html=1;fillColor=#9999FF;" vertex="1" parent="1">
          <mxGeometry x="537.5" y="410" width="75" height="50" as="geometry" />
        </mxCell>
      </root>
    </mxGraphModel>
  </diagram>
</mxfile>
